<mxfile host="app.diagrams.net" modified="2020-11-13T19:52:27.075Z" agent="5.0 (Windows)" etag="m-l6X376P44P3Nllkh_8" version="13.9.7" type="github">
  <diagram id="jPVr6tb7BlP5Q8UA5PHh" name="Page-1">
    <mxGraphModel dx="864" dy="891" grid="1" gridSize="10" guides="1" tooltips="1" connect="1" arrows="1" fold="1" page="1" pageScale="1" pageWidth="1400" pageHeight="850" math="0" shadow="0">
      <root>
        <mxCell id="0" />
        <mxCell id="1" parent="0" />
        <mxCell id="oxGBBMDOwQoGJJ92yZIw-1" style="edgeStyle=none;rounded=0;orthogonalLoop=1;jettySize=auto;html=1;strokeWidth=1;" edge="1" source="oxGBBMDOwQoGJJ92yZIw-2" parent="1">
          <mxGeometry relative="1" as="geometry">
            <mxPoint x="750.5" y="210" as="targetPoint" />
          </mxGeometry>
        </mxCell>
        <mxCell id="oxGBBMDOwQoGJJ92yZIw-2" value="" style="ellipse;whiteSpace=wrap;html=1;aspect=fixed;" vertex="1" parent="1">
          <mxGeometry x="630.5" y="190" width="40" height="40" as="geometry" />
        </mxCell>
        <mxCell id="oxGBBMDOwQoGJJ92yZIw-3" value="" style="endArrow=none;html=1;strokeWidth=3;" edge="1" parent="1">
          <mxGeometry width="50" height="50" relative="1" as="geometry">
            <mxPoint x="550.5" y="230" as="sourcePoint" />
            <mxPoint x="550.5" y="190" as="targetPoint" />
          </mxGeometry>
        </mxCell>
        <mxCell id="oxGBBMDOwQoGJJ92yZIw-4" value="" style="ellipse;whiteSpace=wrap;html=1;aspect=fixed;" vertex="1" parent="1">
          <mxGeometry x="630.5" y="110" width="40" height="40" as="geometry" />
        </mxCell>
        <mxCell id="oxGBBMDOwQoGJJ92yZIw-5" value="" style="endArrow=none;html=1;strokeWidth=3;" edge="1" parent="1">
          <mxGeometry width="50" height="50" relative="1" as="geometry">
            <mxPoint x="750.5" y="230" as="sourcePoint" />
            <mxPoint x="750.5" y="190" as="targetPoint" />
          </mxGeometry>
        </mxCell>
        <mxCell id="oxGBBMDOwQoGJJ92yZIw-6" style="edgeStyle=none;rounded=0;orthogonalLoop=1;jettySize=auto;html=1;strokeWidth=1;" edge="1" target="oxGBBMDOwQoGJJ92yZIw-4" parent="1">
          <mxGeometry relative="1" as="geometry">
            <mxPoint x="760.5" y="220.0000000000001" as="targetPoint" />
            <mxPoint x="750.5" y="210" as="sourcePoint" />
          </mxGeometry>
        </mxCell>
        <mxCell id="oxGBBMDOwQoGJJ92yZIw-7" style="edgeStyle=none;rounded=0;orthogonalLoop=1;jettySize=auto;html=1;strokeWidth=1;" edge="1" source="oxGBBMDOwQoGJJ92yZIw-4" parent="1">
          <mxGeometry relative="1" as="geometry">
            <mxPoint x="550.5" y="210" as="targetPoint" />
            <mxPoint x="760.5" y="220.0000000000001" as="sourcePoint" />
          </mxGeometry>
        </mxCell>
        <mxCell id="oxGBBMDOwQoGJJ92yZIw-8" value="" style="endArrow=classic;html=1;strokeWidth=1;" edge="1" parent="1">
          <mxGeometry width="50" height="50" relative="1" as="geometry">
            <mxPoint x="550.5" y="209.58000000000015" as="sourcePoint" />
            <mxPoint x="630.5" y="209.58000000000015" as="targetPoint" />
          </mxGeometry>
        </mxCell>
        <mxCell id="oxGBBMDOwQoGJJ92yZIw-9" value="" style="ellipse;whiteSpace=wrap;html=1;aspect=fixed;fillColor=#000000;strokeColor=none;" vertex="1" parent="1">
          <mxGeometry x="638.5" y="125" width="10" height="10" as="geometry" />
        </mxCell>
        <mxCell id="oxGBBMDOwQoGJJ92yZIw-11" style="edgeStyle=none;rounded=0;orthogonalLoop=1;jettySize=auto;html=1;strokeWidth=1;" edge="1" source="oxGBBMDOwQoGJJ92yZIw-12" parent="1">
          <mxGeometry relative="1" as="geometry">
            <mxPoint x="750" y="430" as="targetPoint" />
          </mxGeometry>
        </mxCell>
        <mxCell id="oxGBBMDOwQoGJJ92yZIw-12" value="" style="ellipse;whiteSpace=wrap;html=1;aspect=fixed;" vertex="1" parent="1">
          <mxGeometry x="630" y="410" width="40" height="40" as="geometry" />
        </mxCell>
        <mxCell id="oxGBBMDOwQoGJJ92yZIw-13" value="" style="endArrow=none;html=1;strokeWidth=3;" edge="1" parent="1">
          <mxGeometry width="50" height="50" relative="1" as="geometry">
            <mxPoint x="550" y="450" as="sourcePoint" />
            <mxPoint x="550" y="410" as="targetPoint" />
          </mxGeometry>
        </mxCell>
        <mxCell id="oxGBBMDOwQoGJJ92yZIw-14" value="" style="ellipse;whiteSpace=wrap;html=1;aspect=fixed;" vertex="1" parent="1">
          <mxGeometry x="630" y="330" width="40" height="40" as="geometry" />
        </mxCell>
        <mxCell id="oxGBBMDOwQoGJJ92yZIw-15" value="" style="endArrow=none;html=1;strokeWidth=3;" edge="1" parent="1">
          <mxGeometry width="50" height="50" relative="1" as="geometry">
            <mxPoint x="750" y="450" as="sourcePoint" />
            <mxPoint x="750" y="410" as="targetPoint" />
          </mxGeometry>
        </mxCell>
        <mxCell id="oxGBBMDOwQoGJJ92yZIw-16" style="edgeStyle=none;rounded=0;orthogonalLoop=1;jettySize=auto;html=1;strokeWidth=1;" edge="1" target="oxGBBMDOwQoGJJ92yZIw-14" parent="1">
          <mxGeometry relative="1" as="geometry">
            <mxPoint x="760" y="440.0000000000001" as="targetPoint" />
            <mxPoint x="750" y="430" as="sourcePoint" />
          </mxGeometry>
        </mxCell>
        <mxCell id="oxGBBMDOwQoGJJ92yZIw-17" style="edgeStyle=none;rounded=0;orthogonalLoop=1;jettySize=auto;html=1;strokeWidth=1;" edge="1" source="oxGBBMDOwQoGJJ92yZIw-14" parent="1">
          <mxGeometry relative="1" as="geometry">
            <mxPoint x="550" y="430" as="targetPoint" />
            <mxPoint x="760" y="440.0000000000001" as="sourcePoint" />
          </mxGeometry>
        </mxCell>
        <mxCell id="oxGBBMDOwQoGJJ92yZIw-18" value="" style="endArrow=classic;html=1;strokeWidth=1;" edge="1" parent="1">
          <mxGeometry width="50" height="50" relative="1" as="geometry">
            <mxPoint x="550" y="429.58000000000015" as="sourcePoint" />
            <mxPoint x="630" y="429.58000000000015" as="targetPoint" />
          </mxGeometry>
        </mxCell>
        <mxCell id="oxGBBMDOwQoGJJ92yZIw-19" value="" style="ellipse;whiteSpace=wrap;html=1;aspect=fixed;fillColor=#000000;strokeColor=none;" vertex="1" parent="1">
          <mxGeometry x="638" y="345" width="10" height="10" as="geometry" />
        </mxCell>
        <mxCell id="oxGBBMDOwQoGJJ92yZIw-21" value="" style="ellipse;whiteSpace=wrap;html=1;aspect=fixed;" vertex="1" parent="1">
          <mxGeometry x="410" y="280" width="40" height="40" as="geometry" />
        </mxCell>
        <mxCell id="oxGBBMDOwQoGJJ92yZIw-22" value="" style="endArrow=none;html=1;strokeWidth=3;" edge="1" parent="1">
          <mxGeometry width="50" height="50" relative="1" as="geometry">
            <mxPoint x="330" y="320" as="sourcePoint" />
            <mxPoint x="330" y="280" as="targetPoint" />
          </mxGeometry>
        </mxCell>
        <mxCell id="oxGBBMDOwQoGJJ92yZIw-23" value="" style="endArrow=classic;html=1;strokeWidth=1;" edge="1" parent="1">
          <mxGeometry width="50" height="50" relative="1" as="geometry">
            <mxPoint x="330" y="299.58000000000015" as="sourcePoint" />
            <mxPoint x="410" y="299.58000000000015" as="targetPoint" />
          </mxGeometry>
        </mxCell>
        <mxCell id="oxGBBMDOwQoGJJ92yZIw-24" value="" style="endArrow=classic;html=1;strokeWidth=1;exitX=1;exitY=0;exitDx=0;exitDy=0;" edge="1" parent="1" source="oxGBBMDOwQoGJJ92yZIw-21">
          <mxGeometry width="50" height="50" relative="1" as="geometry">
            <mxPoint x="450" y="299.50000000000017" as="sourcePoint" />
            <mxPoint x="550" y="210" as="targetPoint" />
          </mxGeometry>
        </mxCell>
        <mxCell id="oxGBBMDOwQoGJJ92yZIw-25" value="" style="endArrow=classic;html=1;strokeWidth=1;exitX=1;exitY=1;exitDx=0;exitDy=0;" edge="1" parent="1" source="oxGBBMDOwQoGJJ92yZIw-21">
          <mxGeometry width="50" height="50" relative="1" as="geometry">
            <mxPoint x="460" y="309.5000000000002" as="sourcePoint" />
            <mxPoint x="550" y="430" as="targetPoint" />
          </mxGeometry>
        </mxCell>
        <mxCell id="oxGBBMDOwQoGJJ92yZIw-26" style="edgeStyle=none;rounded=0;orthogonalLoop=1;jettySize=auto;html=1;strokeWidth=1;" edge="1" source="oxGBBMDOwQoGJJ92yZIw-27" parent="1">
          <mxGeometry relative="1" as="geometry">
            <mxPoint x="330" y="290" as="targetPoint" />
          </mxGeometry>
        </mxCell>
        <mxCell id="oxGBBMDOwQoGJJ92yZIw-27" value="" style="ellipse;whiteSpace=wrap;html=1;aspect=fixed;" vertex="1" parent="1">
          <mxGeometry x="200" y="200" width="40" height="40" as="geometry" />
        </mxCell>
        <mxCell id="oxGBBMDOwQoGJJ92yZIw-28" value="" style="endArrow=none;html=1;strokeWidth=3;" edge="1" parent="1">
          <mxGeometry width="50" height="50" relative="1" as="geometry">
            <mxPoint x="120" y="240" as="sourcePoint" />
            <mxPoint x="120" y="200" as="targetPoint" />
          </mxGeometry>
        </mxCell>
        <mxCell id="oxGBBMDOwQoGJJ92yZIw-30" value="" style="endArrow=classic;html=1;strokeWidth=1;" edge="1" parent="1">
          <mxGeometry width="50" height="50" relative="1" as="geometry">
            <mxPoint x="120" y="219.58000000000015" as="sourcePoint" />
            <mxPoint x="200" y="219.58000000000015" as="targetPoint" />
          </mxGeometry>
        </mxCell>
        <mxCell id="oxGBBMDOwQoGJJ92yZIw-31" style="edgeStyle=none;rounded=0;orthogonalLoop=1;jettySize=auto;html=1;strokeWidth=1;" edge="1" source="oxGBBMDOwQoGJJ92yZIw-32" parent="1">
          <mxGeometry relative="1" as="geometry">
            <mxPoint x="330" y="310" as="targetPoint" />
          </mxGeometry>
        </mxCell>
        <mxCell id="oxGBBMDOwQoGJJ92yZIw-32" value="" style="ellipse;whiteSpace=wrap;html=1;aspect=fixed;" vertex="1" parent="1">
          <mxGeometry x="200" y="360" width="40" height="40" as="geometry" />
        </mxCell>
        <mxCell id="oxGBBMDOwQoGJJ92yZIw-33" value="" style="endArrow=none;html=1;strokeWidth=3;" edge="1" parent="1">
          <mxGeometry width="50" height="50" relative="1" as="geometry">
            <mxPoint x="120" y="400" as="sourcePoint" />
            <mxPoint x="120" y="360" as="targetPoint" />
          </mxGeometry>
        </mxCell>
        <mxCell id="oxGBBMDOwQoGJJ92yZIw-34" value="" style="endArrow=classic;html=1;strokeWidth=1;" edge="1" parent="1">
          <mxGeometry width="50" height="50" relative="1" as="geometry">
            <mxPoint x="120" y="379.58000000000015" as="sourcePoint" />
            <mxPoint x="200" y="379.58000000000015" as="targetPoint" />
          </mxGeometry>
        </mxCell>
        <mxCell id="oxGBBMDOwQoGJJ92yZIw-35" style="edgeStyle=none;rounded=0;orthogonalLoop=1;jettySize=auto;html=1;strokeWidth=1;exitX=0.643;exitY=0.967;exitDx=0;exitDy=0;exitPerimeter=0;" edge="1" parent="1" source="oxGBBMDOwQoGJJ92yZIw-27">
          <mxGeometry relative="1" as="geometry">
            <mxPoint x="330" y="300" as="targetPoint" />
            <mxPoint x="246.88196805764323" y="240.7237658730943" as="sourcePoint" />
          </mxGeometry>
        </mxCell>
        <mxCell id="oxGBBMDOwQoGJJ92yZIw-36" style="edgeStyle=none;rounded=0;orthogonalLoop=1;jettySize=auto;html=1;strokeWidth=1;exitX=0.953;exitY=0.364;exitDx=0;exitDy=0;exitPerimeter=0;" edge="1" parent="1" source="oxGBBMDOwQoGJJ92yZIw-27">
          <mxGeometry relative="1" as="geometry">
            <mxPoint x="330" y="280" as="targetPoint" />
            <mxPoint x="235.7199999999999" y="248.67999999999995" as="sourcePoint" />
          </mxGeometry>
        </mxCell>
        <mxCell id="oxGBBMDOwQoGJJ92yZIw-37" style="edgeStyle=none;rounded=0;orthogonalLoop=1;jettySize=auto;html=1;strokeWidth=1;exitX=1;exitY=1;exitDx=0;exitDy=0;" edge="1" parent="1" source="oxGBBMDOwQoGJJ92yZIw-32">
          <mxGeometry relative="1" as="geometry">
            <mxPoint x="330" y="320" as="targetPoint" />
            <mxPoint x="246.88196805764323" y="379.2762341269056" as="sourcePoint" />
          </mxGeometry>
        </mxCell>
        <mxCell id="oxGBBMDOwQoGJJ92yZIw-38" style="edgeStyle=none;rounded=0;orthogonalLoop=1;jettySize=auto;html=1;strokeWidth=1;exitX=0.5;exitY=0;exitDx=0;exitDy=0;" edge="1" parent="1" source="oxGBBMDOwQoGJJ92yZIw-32">
          <mxGeometry relative="1" as="geometry">
            <mxPoint x="330" y="300" as="targetPoint" />
            <mxPoint x="244.14213562373084" y="404.14213562373095" as="sourcePoint" />
          </mxGeometry>
        </mxCell>
        <mxCell id="oxGBBMDOwQoGJJ92yZIw-39" style="edgeStyle=none;rounded=0;orthogonalLoop=1;jettySize=auto;html=1;strokeWidth=1;" edge="1" source="oxGBBMDOwQoGJJ92yZIw-40" parent="1">
          <mxGeometry relative="1" as="geometry">
            <mxPoint x="960" y="300" as="targetPoint" />
          </mxGeometry>
        </mxCell>
        <mxCell id="oxGBBMDOwQoGJJ92yZIw-40" value="" style="ellipse;whiteSpace=wrap;html=1;aspect=fixed;" vertex="1" parent="1">
          <mxGeometry x="840" y="280" width="40" height="40" as="geometry" />
        </mxCell>
        <mxCell id="oxGBBMDOwQoGJJ92yZIw-41" value="" style="endArrow=none;html=1;strokeWidth=3;" edge="1" parent="1">
          <mxGeometry width="50" height="50" relative="1" as="geometry">
            <mxPoint x="960" y="320" as="sourcePoint" />
            <mxPoint x="960" y="280" as="targetPoint" />
          </mxGeometry>
        </mxCell>
        <mxCell id="oxGBBMDOwQoGJJ92yZIw-42" style="edgeStyle=none;rounded=0;orthogonalLoop=1;jettySize=auto;html=1;strokeWidth=1;" edge="1" parent="1" target="oxGBBMDOwQoGJJ92yZIw-40">
          <mxGeometry relative="1" as="geometry">
            <mxPoint x="760" y="440" as="targetPoint" />
            <mxPoint x="750" y="430" as="sourcePoint" />
          </mxGeometry>
        </mxCell>
        <mxCell id="oxGBBMDOwQoGJJ92yZIw-43" style="edgeStyle=none;rounded=0;orthogonalLoop=1;jettySize=auto;html=1;strokeWidth=1;" edge="1" parent="1" target="oxGBBMDOwQoGJJ92yZIw-40">
          <mxGeometry relative="1" as="geometry">
            <mxPoint x="857.0811551707018" y="325.2677257073526" as="targetPoint" />
            <mxPoint x="750" y="210" as="sourcePoint" />
          </mxGeometry>
        </mxCell>
      </root>
    </mxGraphModel>
  </diagram>
</mxfile>
